<mxfile host="app.diagrams.net" modified="2022-04-04T11:54:18.412Z" agent="5.0 (Windows NT 10.0; Win64; x64) AppleWebKit/537.36 (KHTML, like Gecko) Chrome/100.0.4896.60 Safari/537.36" etag="bd3Dj05IDTiknSLkmQZr" version="17.1.3" type="github">
  <diagram id="Q0MAqNVNHO3hnyYTT2MR" name="Page-1">
    <mxGraphModel dx="1108" dy="451" grid="1" gridSize="10" guides="1" tooltips="1" connect="1" arrows="1" fold="1" page="1" pageScale="1" pageWidth="827" pageHeight="1169" math="0" shadow="0">
      <root>
        <mxCell id="0" />
        <mxCell id="1" parent="0" />
        <mxCell id="cu9Nq8hss9GcxTwLiQSB-1" value="Cadastro de novos livros" style="swimlane;html=1;childLayout=stackLayout;resizeParent=1;resizeParentMax=0;horizontal=0;startSize=20;horizontalStack=0;" vertex="1" parent="1">
          <mxGeometry x="60" y="40" width="730" height="480" as="geometry" />
        </mxCell>
        <mxCell id="cu9Nq8hss9GcxTwLiQSB-2" value="&lt;font style=&quot;font-size: 12px&quot;&gt;derp. administrativo&lt;/font&gt;" style="swimlane;html=1;startSize=20;horizontal=0;" vertex="1" parent="cu9Nq8hss9GcxTwLiQSB-1">
          <mxGeometry x="20" width="710" height="240" as="geometry" />
        </mxCell>
        <mxCell id="cu9Nq8hss9GcxTwLiQSB-32" style="edgeStyle=orthogonalEdgeStyle;rounded=0;orthogonalLoop=1;jettySize=auto;html=1;fontSize=12;" edge="1" parent="cu9Nq8hss9GcxTwLiQSB-2" source="cu9Nq8hss9GcxTwLiQSB-11" target="cu9Nq8hss9GcxTwLiQSB-12">
          <mxGeometry relative="1" as="geometry" />
        </mxCell>
        <mxCell id="cu9Nq8hss9GcxTwLiQSB-11" value="" style="points=[[0.145,0.145,0],[0.5,0,0],[0.855,0.145,0],[1,0.5,0],[0.855,0.855,0],[0.5,1,0],[0.145,0.855,0],[0,0.5,0]];shape=mxgraph.bpmn.event;html=1;verticalLabelPosition=bottom;labelBackgroundColor=#ffffff;verticalAlign=top;align=center;perimeter=ellipsePerimeter;outlineConnect=0;aspect=fixed;outline=standard;symbol=general;fillColor=#d5e8d4;strokeColor=#82b366;" vertex="1" parent="cu9Nq8hss9GcxTwLiQSB-2">
          <mxGeometry x="40" y="115" width="20" height="20" as="geometry" />
        </mxCell>
        <mxCell id="cu9Nq8hss9GcxTwLiQSB-29" style="edgeStyle=orthogonalEdgeStyle;rounded=0;orthogonalLoop=1;jettySize=auto;html=1;entryX=0;entryY=0.5;entryDx=0;entryDy=0;entryPerimeter=0;fontSize=12;" edge="1" parent="cu9Nq8hss9GcxTwLiQSB-2" source="cu9Nq8hss9GcxTwLiQSB-12" target="cu9Nq8hss9GcxTwLiQSB-13">
          <mxGeometry relative="1" as="geometry" />
        </mxCell>
        <mxCell id="cu9Nq8hss9GcxTwLiQSB-12" value="receber novos livros " style="points=[[0.25,0,0],[0.5,0,0],[0.75,0,0],[1,0.25,0],[1,0.5,0],[1,0.75,0],[0.75,1,0],[0.5,1,0],[0.25,1,0],[0,0.75,0],[0,0.5,0],[0,0.25,0]];shape=mxgraph.bpmn.task;whiteSpace=wrap;rectStyle=rounded;size=10;taskMarker=abstract;" vertex="1" parent="cu9Nq8hss9GcxTwLiQSB-2">
          <mxGeometry x="90" y="95" width="90" height="60" as="geometry" />
        </mxCell>
        <mxCell id="cu9Nq8hss9GcxTwLiQSB-30" style="edgeStyle=orthogonalEdgeStyle;rounded=0;orthogonalLoop=1;jettySize=auto;html=1;entryX=0;entryY=0.5;entryDx=0;entryDy=0;entryPerimeter=0;fontSize=12;" edge="1" parent="cu9Nq8hss9GcxTwLiQSB-2" source="cu9Nq8hss9GcxTwLiQSB-13" target="cu9Nq8hss9GcxTwLiQSB-15">
          <mxGeometry relative="1" as="geometry" />
        </mxCell>
        <mxCell id="cu9Nq8hss9GcxTwLiQSB-13" value="conferir quantidades dos titulos recebidos" style="points=[[0.25,0,0],[0.5,0,0],[0.75,0,0],[1,0.25,0],[1,0.5,0],[1,0.75,0],[0.75,1,0],[0.5,1,0],[0.25,1,0],[0,0.75,0],[0,0.5,0],[0,0.25,0]];shape=mxgraph.bpmn.task;whiteSpace=wrap;rectStyle=rounded;size=10;taskMarker=abstract;" vertex="1" parent="cu9Nq8hss9GcxTwLiQSB-2">
          <mxGeometry x="220" y="95" width="90" height="60" as="geometry" />
        </mxCell>
        <mxCell id="cu9Nq8hss9GcxTwLiQSB-22" style="edgeStyle=orthogonalEdgeStyle;rounded=0;orthogonalLoop=1;jettySize=auto;html=1;entryX=0;entryY=0.5;entryDx=0;entryDy=0;entryPerimeter=0;fontSize=10;" edge="1" parent="cu9Nq8hss9GcxTwLiQSB-2" source="cu9Nq8hss9GcxTwLiQSB-15" target="cu9Nq8hss9GcxTwLiQSB-14">
          <mxGeometry relative="1" as="geometry">
            <Array as="points">
              <mxPoint x="450" y="140" />
              <mxPoint x="450" y="170" />
            </Array>
          </mxGeometry>
        </mxCell>
        <mxCell id="cu9Nq8hss9GcxTwLiQSB-23" style="edgeStyle=orthogonalEdgeStyle;rounded=0;orthogonalLoop=1;jettySize=auto;html=1;exitX=0.5;exitY=0;exitDx=0;exitDy=0;exitPerimeter=0;entryX=-0.027;entryY=0.4;entryDx=0;entryDy=0;entryPerimeter=0;fontSize=10;" edge="1" parent="cu9Nq8hss9GcxTwLiQSB-2" source="cu9Nq8hss9GcxTwLiQSB-15" target="cu9Nq8hss9GcxTwLiQSB-16">
          <mxGeometry relative="1" as="geometry" />
        </mxCell>
        <mxCell id="cu9Nq8hss9GcxTwLiQSB-15" value="quantidade de titulos &lt;br&gt;igual nota fiscal?" style="points=[[0.25,0.25,0],[0.5,0,0],[0.75,0.25,0],[1,0.5,0],[0.75,0.75,0],[0.5,1,0],[0.25,0.75,0],[0,0.5,0]];shape=mxgraph.bpmn.gateway2;html=1;verticalLabelPosition=bottom;labelBackgroundColor=#ffffff;verticalAlign=top;align=center;perimeter=rhombusPerimeter;outlineConnect=0;outline=none;symbol=none;fillColor=#fff2cc;strokeColor=#d6b656;" vertex="1" parent="cu9Nq8hss9GcxTwLiQSB-2">
          <mxGeometry x="367" y="107.5" width="33.5" height="35" as="geometry" />
        </mxCell>
        <mxCell id="cu9Nq8hss9GcxTwLiQSB-16" value="notificar mandante e devolver pedido " style="points=[[0.25,0,0],[0.5,0,0],[0.75,0,0],[1,0.25,0],[1,0.5,0],[1,0.75,0],[0.75,1,0],[0.5,1,0],[0.25,1,0],[0,0.75,0],[0,0.5,0],[0,0.25,0]];shape=mxgraph.bpmn.task;whiteSpace=wrap;rectStyle=rounded;size=10;taskMarker=abstract;" vertex="1" parent="cu9Nq8hss9GcxTwLiQSB-2">
          <mxGeometry x="490" y="50" width="110" height="60" as="geometry" />
        </mxCell>
        <mxCell id="cu9Nq8hss9GcxTwLiQSB-14" value="encaminhar livros para bibliotecaria" style="points=[[0.25,0,0],[0.5,0,0],[0.75,0,0],[1,0.25,0],[1,0.5,0],[1,0.75,0],[0.75,1,0],[0.5,1,0],[0.25,1,0],[0,0.75,0],[0,0.5,0],[0,0.25,0]];shape=mxgraph.bpmn.task;whiteSpace=wrap;rectStyle=rounded;size=10;taskMarker=abstract;" vertex="1" parent="cu9Nq8hss9GcxTwLiQSB-2">
          <mxGeometry x="500" y="140" width="100" height="60" as="geometry" />
        </mxCell>
        <mxCell id="cu9Nq8hss9GcxTwLiQSB-20" value="não" style="text;html=1;strokeColor=none;fillColor=none;align=center;verticalAlign=middle;whiteSpace=wrap;rounded=0;fontSize=10;" vertex="1" parent="cu9Nq8hss9GcxTwLiQSB-2">
          <mxGeometry x="375" y="40" width="60" height="30" as="geometry" />
        </mxCell>
        <mxCell id="cu9Nq8hss9GcxTwLiQSB-19" value="sim" style="text;html=1;strokeColor=none;fillColor=none;align=center;verticalAlign=middle;whiteSpace=wrap;rounded=0;fontSize=10;" vertex="1" parent="cu9Nq8hss9GcxTwLiQSB-2">
          <mxGeometry x="390" y="112.5" width="60" height="30" as="geometry" />
        </mxCell>
        <mxCell id="cu9Nq8hss9GcxTwLiQSB-24" value="" style="points=[[0.145,0.145,0],[0.5,0,0],[0.855,0.145,0],[1,0.5,0],[0.855,0.855,0],[0.5,1,0],[0.145,0.855,0],[0,0.5,0]];shape=mxgraph.bpmn.event;html=1;verticalLabelPosition=bottom;labelBackgroundColor=#ffffff;verticalAlign=top;align=center;perimeter=ellipsePerimeter;outlineConnect=0;aspect=fixed;outline=standard;symbol=general;fillColor=#f8cecc;strokeColor=#b85450;" vertex="1" parent="cu9Nq8hss9GcxTwLiQSB-2">
          <mxGeometry x="650" y="70" width="20" height="20" as="geometry" />
        </mxCell>
        <mxCell id="cu9Nq8hss9GcxTwLiQSB-31" style="edgeStyle=orthogonalEdgeStyle;rounded=0;orthogonalLoop=1;jettySize=auto;html=1;fontSize=12;entryX=0;entryY=0.5;entryDx=0;entryDy=0;entryPerimeter=0;" edge="1" parent="cu9Nq8hss9GcxTwLiQSB-2" source="cu9Nq8hss9GcxTwLiQSB-16" target="cu9Nq8hss9GcxTwLiQSB-24">
          <mxGeometry relative="1" as="geometry">
            <mxPoint x="640" y="80" as="targetPoint" />
          </mxGeometry>
        </mxCell>
        <mxCell id="cu9Nq8hss9GcxTwLiQSB-3" value="bibliotecária" style="swimlane;html=1;startSize=20;horizontal=0;" vertex="1" parent="cu9Nq8hss9GcxTwLiQSB-1">
          <mxGeometry x="20" y="240" width="710" height="120" as="geometry" />
        </mxCell>
        <mxCell id="cu9Nq8hss9GcxTwLiQSB-25" value="gerar n° de tombo e anexar a cada exemplar" style="points=[[0.25,0,0],[0.5,0,0],[0.75,0,0],[1,0.25,0],[1,0.5,0],[1,0.75,0],[0.75,1,0],[0.5,1,0],[0.25,1,0],[0,0.75,0],[0,0.5,0],[0,0.25,0]];shape=mxgraph.bpmn.task;whiteSpace=wrap;rectStyle=rounded;size=10;taskMarker=abstract;" vertex="1" parent="cu9Nq8hss9GcxTwLiQSB-3">
          <mxGeometry x="80" y="30" width="100" height="60" as="geometry" />
        </mxCell>
        <mxCell id="cu9Nq8hss9GcxTwLiQSB-4" value="Atendente" style="swimlane;html=1;startSize=20;horizontal=0;" vertex="1" parent="cu9Nq8hss9GcxTwLiQSB-1">
          <mxGeometry x="20" y="360" width="710" height="120" as="geometry" />
        </mxCell>
        <mxCell id="cu9Nq8hss9GcxTwLiQSB-35" style="edgeStyle=orthogonalEdgeStyle;rounded=0;orthogonalLoop=1;jettySize=auto;html=1;entryX=0;entryY=0.5;entryDx=0;entryDy=0;entryPerimeter=0;fontSize=12;" edge="1" parent="cu9Nq8hss9GcxTwLiQSB-4" source="cu9Nq8hss9GcxTwLiQSB-26" target="cu9Nq8hss9GcxTwLiQSB-27">
          <mxGeometry relative="1" as="geometry" />
        </mxCell>
        <mxCell id="cu9Nq8hss9GcxTwLiQSB-26" value="gerar fixa para título" style="points=[[0.25,0,0],[0.5,0,0],[0.75,0,0],[1,0.25,0],[1,0.5,0],[1,0.75,0],[0.75,1,0],[0.5,1,0],[0.25,1,0],[0,0.75,0],[0,0.5,0],[0,0.25,0]];shape=mxgraph.bpmn.task;whiteSpace=wrap;rectStyle=rounded;size=10;taskMarker=abstract;" vertex="1" parent="cu9Nq8hss9GcxTwLiQSB-4">
          <mxGeometry x="80" y="30" width="100" height="60" as="geometry" />
        </mxCell>
        <mxCell id="cu9Nq8hss9GcxTwLiQSB-36" style="edgeStyle=orthogonalEdgeStyle;rounded=0;orthogonalLoop=1;jettySize=auto;html=1;entryX=0;entryY=0.5;entryDx=0;entryDy=0;entryPerimeter=0;fontSize=12;" edge="1" parent="cu9Nq8hss9GcxTwLiQSB-4" source="cu9Nq8hss9GcxTwLiQSB-27" target="cu9Nq8hss9GcxTwLiQSB-28">
          <mxGeometry relative="1" as="geometry" />
        </mxCell>
        <mxCell id="cu9Nq8hss9GcxTwLiQSB-27" value="colocar livros na estante" style="points=[[0.25,0,0],[0.5,0,0],[0.75,0,0],[1,0.25,0],[1,0.5,0],[1,0.75,0],[0.75,1,0],[0.5,1,0],[0.25,1,0],[0,0.75,0],[0,0.5,0],[0,0.25,0]];shape=mxgraph.bpmn.task;whiteSpace=wrap;rectStyle=rounded;size=10;taskMarker=abstract;" vertex="1" parent="cu9Nq8hss9GcxTwLiQSB-4">
          <mxGeometry x="250" y="30" width="100" height="60" as="geometry" />
        </mxCell>
        <mxCell id="cu9Nq8hss9GcxTwLiQSB-28" value="" style="points=[[0.145,0.145,0],[0.5,0,0],[0.855,0.145,0],[1,0.5,0],[0.855,0.855,0],[0.5,1,0],[0.145,0.855,0],[0,0.5,0]];shape=mxgraph.bpmn.event;html=1;verticalLabelPosition=bottom;labelBackgroundColor=#ffffff;verticalAlign=top;align=center;perimeter=ellipsePerimeter;outlineConnect=0;aspect=fixed;outline=standard;symbol=general;fillColor=#f8cecc;strokeColor=#b85450;" vertex="1" parent="cu9Nq8hss9GcxTwLiQSB-4">
          <mxGeometry x="410" y="50" width="20" height="20" as="geometry" />
        </mxCell>
        <mxCell id="cu9Nq8hss9GcxTwLiQSB-33" style="edgeStyle=orthogonalEdgeStyle;rounded=0;orthogonalLoop=1;jettySize=auto;html=1;entryX=0.5;entryY=0;entryDx=0;entryDy=0;entryPerimeter=0;fontSize=12;" edge="1" parent="cu9Nq8hss9GcxTwLiQSB-1" source="cu9Nq8hss9GcxTwLiQSB-14" target="cu9Nq8hss9GcxTwLiQSB-25">
          <mxGeometry relative="1" as="geometry">
            <Array as="points">
              <mxPoint x="570" y="210" />
              <mxPoint x="150" y="210" />
            </Array>
          </mxGeometry>
        </mxCell>
        <mxCell id="cu9Nq8hss9GcxTwLiQSB-34" style="edgeStyle=orthogonalEdgeStyle;rounded=0;orthogonalLoop=1;jettySize=auto;html=1;entryX=0.5;entryY=0;entryDx=0;entryDy=0;entryPerimeter=0;fontSize=12;" edge="1" parent="cu9Nq8hss9GcxTwLiQSB-1" source="cu9Nq8hss9GcxTwLiQSB-25" target="cu9Nq8hss9GcxTwLiQSB-26">
          <mxGeometry relative="1" as="geometry" />
        </mxCell>
      </root>
    </mxGraphModel>
  </diagram>
</mxfile>
